<?xml version="1.0" standalone="no"?>
<!DOCTYPE svg PUBLIC "-//W3C//DTD SVG 20010904//EN"
 "http://www.w3.org/TR/2001/REC-SVG-20010904/DTD/svg10.dtd">
<svg version="1.0" xmlns="http://www.w3.org/2000/svg"
 width="800.000000pt" height="800.000000pt" viewBox="0 0 800.000000 800.000000"
 preserveAspectRatio="xMidYMid meet">
<metadata>
Created by Marcel Breuer
</metadata>
<g transform="translate(0.000000,800.000000) scale(0.100000,-0.100000)"
fill="#000000" stroke="none">
<path d="M2875 5400 c-96 -25 -148 -48 -142 -63 7 -18 1121 -2484 1143 -2530
21 -44 21 -44 139 12 200 95 340 256 407 471 29 95 32 269 5 370 -59 225 -248
431 -472 515 -143 55 -319 70 -460 40 -38 -8 -72 -15 -75 -15 -3 0 18 15 46
34 28 19 81 67 118 107 179 193 217 463 99 709 -50 104 -185 239 -294 293
-156 77 -357 99 -514 57z"/>
<path d="M4758 5189 c-58 -112 -162 -315 -232 -450 l-126 -246 68 -45 c248
-167 423 -412 504 -705 19 -67 22 -105 22 -268 0 -175 -2 -198 -27 -289 -33
-123 -117 -297 -190 -396 l-55 -75 641 -3 c352 -1 642 0 645 3 4 3 -1110 2610
-1138 2664 -5 9 -44 -58 -112 -190z"/>
<path d="M2288 3493 c-163 -428 -296 -779 -294 -780 2 -2 296 -2 654 -1 l651
3 -351 778 c-193 427 -354 777 -357 777 -3 0 -140 -350 -303 -777z"/>
</g>
</svg>
